<?xml version="1.0" encoding="UTF-8" standalone="no"?>
<!DOCTYPE svg PUBLIC "-//W3C//DTD SVG 1.1//EN" "http://www.w3.org/Graphics/SVG/1.1/DTD/svg11.dtd">
<!-- 由 Microsoft Visio, SVG Export 生成 transparent-proxy.svg Page-1 -->
<svg xmlns="http://www.w3.org/2000/svg" xmlns:xlink="http://www.w3.org/1999/xlink" xmlns:ev="http://www.w3.org/2001/xml-events"
		xmlns:v="http://schemas.microsoft.com/visio/2003/SVGExtensions/" width="8.46121in" height="2.32394in"
		viewBox="0 0 609.207 167.324" xml:space="preserve" color-interpolation-filters="sRGB" class="st11">
	<v:documentProperties v:langID="2052" v:metric="true" v:viewMarkup="false">
		<v:userDefs>
			<v:ud v:nameU="msvNoAutoConnect" v:prompt="" v:val="VT0(1):26"/>
		</v:userDefs>
	</v:documentProperties>

	<style type="text/css">
	<![CDATA[
		.st1 {fill:#ffffff;stroke:#a5a5a5;stroke-linecap:round;stroke-linejoin:round;stroke-width:1}
		.st2 {fill:#ffffff;stroke:#a5a5a5;stroke-linecap:round;stroke-linejoin:round;stroke-width:2}
		.st3 {fill:#ffffff;stroke:#fdbf01;stroke-linecap:round;stroke-linejoin:round;stroke-width:2}
		.st4 {fill:#a5a5a5}
		.st5 {fill:#555555;font-family:黑体;font-size:0.833336em}
		.st6 {fill:#555555;font-family:Calibri;font-size:0.833336em}
		.st7 {stroke:#a5a5a5;stroke-linecap:round;stroke-linejoin:round;stroke-width:1}
		.st8 {fill:none;stroke:none;stroke-linecap:round;stroke-linejoin:round;stroke-width:2}
		.st9 {fill:#5c5c5c;font-family:Calibri;font-size:0.666664em}
		.st10 {fill:#5c5c5c;font-family:Calibri;font-size:1.00001em}
		.st11 {fill:none;fill-rule:evenodd;font-size:12px;overflow:visible;stroke-linecap:square;stroke-miterlimit:3}
	]]>
	</style>

	<g v:mID="23" v:index="1" v:groupContext="foregroundPage">
		<v:userDefs>
			<v:ud v:nameU="msvThemeOrder" v:val="VT0(0):26"/>
		</v:userDefs>
		<title>页-1</title>
		<v:pageProperties v:drawingScale="0.0393701" v:pageScale="0.0393701" v:drawingUnits="24" v:shadowOffsetX="8.50394"
				v:shadowOffsetY="-8.50394"/>
		<v:layer v:name="容器" v:index="0"/>
		<v:layer v:name="连接线" v:index="1"/>
		<g id="group1-1" transform="translate(18.5,-20.8346)" v:mID="1" v:groupContext="group" v:layerMember="0">
			<v:userDefs>
				<v:ud v:nameU="msvShapeCategories" v:prompt="" v:val="VT4(ContainerStyleDefaults)"/>
				<v:ud v:nameU="msvStructureType" v:prompt="" v:val="VT4(Container)"/>
				<v:ud v:nameU="msvSDContainerMargin" v:prompt="" v:val="VT0(0.11811023622047):24"/>
				<v:ud v:nameU="msvSDContainerResize" v:prompt="" v:val="VT0(1):26"/>
				<v:ud v:nameU="msvSDContainerLocked" v:prompt="" v:val="VT0(0):5"/>
				<v:ud v:nameU="msvSDContainerNoHighlight" v:prompt="" v:val="VT0(0):5"/>
				<v:ud v:nameU="msvSDContainerNoRibbon" v:prompt="" v:val="VT0(0):5"/>
				<v:ud v:nameU="msvSDContainerStyle" v:prompt="" v:val="VT0(1):26"/>
				<v:ud v:nameU="msvSDContainerStyleCount" v:prompt="" v:val="VT0(14):26"/>
				<v:ud v:nameU="msvSDContainerRequiredCategories" v:prompt="" v:val="VT0(0):26"/>
				<v:ud v:nameU="msvSDContainerExcludedCategories" v:prompt="" v:val="VT4(DoNotContain)"/>
				<v:ud v:nameU="msvSDHeadingStyle" v:prompt="" v:val="VT0(1):26"/>
				<v:ud v:nameU="msvSDHeadingStyleCount" v:prompt="" v:val="VT0(4):26"/>
				<v:ud v:nameU="HeadingSide" v:prompt="" v:val="VT0(0):26"/>
				<v:ud v:nameU="HeadingSpan" v:prompt="" v:val="VT0(0):26"/>
				<v:ud v:nameU="HeadingAlign" v:prompt="" v:val="VT0(0):26"/>
				<v:ud v:nameU="RTL" v:prompt="" v:val="VT0(0):5"/>
				<v:ud v:nameU="FnForceContrast" v:prompt="" v:val="VT5(#ffffff)"/>
				<v:ud v:nameU="BaseColor" v:prompt="" v:val="VT0(1):26"/>
				<v:ud v:nameU="HColor1" v:prompt="" v:val="VT5(#ffffff)"/>
				<v:ud v:nameU="HColor2" v:prompt="" v:val="VT5(#fefefe)"/>
				<v:ud v:nameU="HColor3" v:prompt="" v:val="VT5(#e9e9e9)"/>
				<v:ud v:nameU="HColor4" v:prompt="" v:val="VT5(#efefef)"/>
				<v:ud v:nameU="BColor1" v:prompt="" v:val="VT5(#ffffff)"/>
				<v:ud v:nameU="BColor2" v:prompt="" v:val="VT5(#ffffff)"/>
				<v:ud v:nameU="LineColor" v:prompt="" v:val="VT5(#d5d5d5)"/>
				<v:ud v:nameU="visVersion" v:prompt="" v:val="VT0(15):26"/>
				<v:ud v:nameU="Embellishment" v:prompt="" v:val="VT0(2):26"/>
				<v:ud v:nameU="BaseColor" v:prompt="" v:val="VT5(#ffffff)"/>
			</v:userDefs>
			<title>Plain.31</title>
			<g id="group2-2" v:mID="2" v:groupContext="group" v:layerMember="0">
				<v:userDefs>
					<v:ud v:nameU="msvStructureType" v:prompt="" v:val="VT0(0):26"/>
					<v:ud v:nameU="CStyle" v:prompt="" v:val="VT0(1):26"/>
					<v:ud v:nameU="HSide" v:prompt="" v:val="VT0(0):26"/>
					<v:ud v:nameU="HSpan" v:prompt="" v:val="VT0(0):26"/>
					<v:ud v:nameU="HAlign" v:prompt="" v:val="VT0(0):26"/>
					<v:ud v:nameU="HorzAlign" v:prompt="" v:val="VT0(0):26"/>
					<v:ud v:nameU="SquareCorners" v:prompt="" v:val="VT0(0):26"/>
					<v:ud v:nameU="Corner6" v:prompt="" v:val="VT0(0.19685039370079):24"/>
					<v:ud v:nameU="FillForegndIn" v:prompt="" v:val="VT0(1):26"/>
					<v:ud v:nameU="FillBkgndIn" v:prompt="" v:val="VT0(0):26"/>
					<v:ud v:nameU="FillPatternIn" v:prompt="" v:val="VT0(1):26"/>
					<v:ud v:nameU="BaseColor" v:prompt="" v:val="VT0(1):26"/>
					<v:ud v:nameU="BackFillColor" v:prompt="" v:val="VT5(#96afcf)"/>
					<v:ud v:nameU="BackLineColor" v:prompt="" v:val="VT5(#1f477d)"/>
					<v:ud v:nameU="DarkerColor" v:prompt="" v:val="VT5(#1f477d)"/>
					<v:ud v:nameU="FillForegndIn" v:prompt="" v:val="VT5(#ffffff)"/>
					<v:ud v:nameU="FillBkgndIn" v:prompt="" v:val="VT5(#5a5a5a)"/>
					<v:ud v:nameU="FillPatternIn" v:prompt="" v:val="VT0(1):26"/>
					<v:ud v:nameU="BaseColor" v:prompt="" v:val="VT5(#ffffff)"/>
					<v:ud v:nameU="BackFillColor" v:prompt="" v:val="VT5(#a5a5a5)"/>
					<v:ud v:nameU="BackLineColor" v:prompt="" v:val="VT5(#ffffff)"/>
					<v:ud v:nameU="DarkerColor" v:prompt="" v:val="VT5(#a5a5a5)"/>
				</v:userDefs>
				<title>工作表.2</title>
				<g id="shape3-3" v:mID="3" v:groupContext="shape" v:layerMember="0" transform="translate(2.83465,2.83465)">
					<title>工作表.3</title>
					<v:userDefs>
						<v:ud v:nameU="msvStructureType" v:prompt="" v:val="VT0(0):26"/>
						<v:ud v:nameU="msvThemeColors" v:prompt="" v:val="VT0(0):26"/>
						<v:ud v:nameU="msvThemeEffects" v:prompt="" v:val="VT0(0):26"/>
						<v:ud v:nameU="CStyle" v:prompt="" v:val="VT0(1):26"/>
						<v:ud v:nameU="HSide" v:prompt="" v:val="VT0(0):26"/>
						<v:ud v:nameU="HSpan" v:prompt="" v:val="VT0(0):26"/>
						<v:ud v:nameU="HAlign" v:prompt="" v:val="VT0(0):26"/>
						<v:ud v:nameU="HorzAlign" v:prompt="" v:val="VT0(0):26"/>
						<v:ud v:nameU="SquareCorners" v:prompt="" v:val="VT0(0):26"/>
						<v:ud v:nameU="OffsetX10" v:prompt="" v:val="VT0(0.039370078740157):24"/>
						<v:ud v:nameU="OffsetY10" v:prompt="" v:val="VT0(-0.039370078740157):24"/>
						<v:ud v:nameU="BackFillColor" v:prompt="" v:val="VT5(#96afcf)"/>
						<v:ud v:nameU="BackLineColor" v:prompt="" v:val="VT5(#1f477d)"/>
						<v:ud v:nameU="DarkerColor" v:prompt="" v:val="VT5(#1f477d)"/>
					</v:userDefs>
				</g>
				<g id="shape2-5" v:mID="2" v:groupContext="groupContent" v:layerMember="0">
					<path d="M0 167.32 L207.7 167.32 L415.4 167.32 L415.4 39.33 L207.7 39.33 L0 39.33 L0 167.32 Z" class="st1"/>
				</g>
			</g>
		</g>
		<g id="group56-7" transform="translate(354.527,-59.022)" v:mID="56" v:groupContext="group">
			<v:custProps>
				<v:cp v:nameU="AssetNumber" v:lbl="资产号" v:prompt="" v:type="0" v:format="" v:sortKey="Asset" v:invis="false"
						v:ask="false" v:langID="2052" v:cal="0"/>
				<v:cp v:nameU="SerialNumber" v:lbl="序列号" v:prompt="" v:type="0" v:format="" v:sortKey="Asset" v:invis="false"
						v:ask="false" v:langID="2052" v:cal="0"/>
				<v:cp v:nameU="Location" v:lbl="位置" v:prompt="" v:type="0" v:format="" v:sortKey="Asset" v:invis="false"
						v:ask="false" v:langID="2052" v:cal="0"/>
				<v:cp v:nameU="Building" v:lbl="建筑物" v:prompt="" v:type="0" v:format="" v:sortKey="Asset" v:invis="false"
						v:ask="false" v:langID="2052" v:cal="0"/>
				<v:cp v:nameU="Room" v:lbl="房间" v:prompt="" v:type="0" v:format="" v:sortKey="Asset" v:invis="false" v:ask="false"
						v:langID="2052" v:cal="0"/>
				<v:cp v:nameU="Manufacturer" v:lbl="制造商" v:prompt="" v:type="0" v:format="" v:sortKey="Equipment" v:invis="false"
						v:ask="false" v:langID="2052" v:cal="0"/>
				<v:cp v:nameU="ProductNumber" v:lbl="产品编号" v:prompt="" v:type="0" v:format="" v:sortKey="Equipment" v:invis="false"
						v:ask="false" v:langID="2052" v:cal="0"/>
				<v:cp v:nameU="PartNumber" v:lbl="部件号" v:prompt="" v:type="0" v:format="" v:sortKey="Equipment" v:invis="false"
						v:ask="false" v:langID="2052" v:cal="0"/>
				<v:cp v:nameU="ProductDescription" v:lbl="产品说明" v:prompt="" v:type="0" v:format="" v:sortKey="Equipment"
						v:invis="false" v:ask="false" v:langID="2052" v:cal="0"/>
				<v:cp v:nameU="NetworkName" v:lbl="网络名称" v:prompt="" v:type="0" v:format="" v:sortKey="Network" v:invis="false"
						v:ask="false" v:langID="2052" v:cal="0"/>
				<v:cp v:nameU="IPAddress" v:lbl="IP 地址" v:prompt="" v:type="0" v:format="" v:sortKey="Network" v:invis="false"
						v:ask="false" v:langID="2052" v:cal="0"/>
				<v:cp v:nameU="SubnetMask" v:lbl="子网掩码" v:prompt="" v:type="0" v:format="" v:sortKey="Network" v:invis="false"
						v:ask="false" v:langID="2052" v:cal="0"/>
				<v:cp v:nameU="AdminInterface" v:lbl="管理接口" v:prompt="" v:type="0" v:format="" v:sortKey="Network" v:invis="false"
						v:ask="false" v:langID="2052" v:cal="0"/>
				<v:cp v:nameU="NumberofPorts" v:lbl="端口数目" v:prompt="" v:type="0" v:format="" v:sortKey="Network" v:invis="false"
						v:ask="false" v:langID="2052" v:cal="0"/>
				<v:cp v:nameU="CommunityString" v:lbl="团体字符串" v:prompt="" v:type="0" v:format="" v:sortKey="Network"
						v:invis="false" v:ask="false" v:langID="2052" v:cal="0"/>
				<v:cp v:nameU="NetworkDescription" v:lbl="网络说明" v:prompt="" v:type="0" v:format="" v:sortKey="Network"
						v:invis="false" v:ask="false" v:langID="2052" v:cal="0"/>
				<v:cp v:nameU="MACAddress" v:lbl="MAC 地址" v:prompt="" v:type="0" v:format="" v:sortKey="Network" v:invis="false"
						v:ask="false" v:langID="2052" v:cal="0"/>
				<v:cp v:nameU="ShapeClass" v:lbl="ShapeClass" v:prompt="" v:type="0" v:format="" v:sortKey="" v:invis="true"
						v:ask="false" v:langID="2052" v:cal="0" v:val="VT4(设备)"/>
				<v:cp v:nameU="ShapeType" v:lbl="ShapeType" v:prompt="" v:type="0" v:format="" v:sortKey="" v:invis="true"
						v:ask="false" v:langID="2052" v:cal="0" v:val="VT4(设备)"/>
				<v:cp v:nameU="SubShapeType" v:lbl="SubShapeType" v:prompt="" v:type="0" v:format="" v:sortKey="" v:invis="true"
						v:ask="false" v:langID="2052" v:cal="0" v:val="VT4(路由器)"/>
			</v:custProps>
			<v:userDefs>
				<v:ud v:nameU="visVersion" v:prompt="" v:val="VT0(15):26"/>
				<v:ud v:nameU="ShapeClass" v:prompt="" v:val="VT0(5):26"/>
				<v:ud v:nameU="SolSH" v:prompt="" v:val="VT15({BF0433D9-CD73-4EB5-8390-8653BE590246}):41"/>
				<v:ud v:nameU="visLegendShape" v:prompt="" v:val="VT0(2):26"/>
			</v:userDefs>
			<title>Router.104</title>
			<desc>路由器</desc>
			<g id="shape57-8" v:mID="57" v:groupContext="shape" transform="translate(0,-19.2171)">
				<title>工作表.57</title>
				<path d="M65.37 167.32 L66.78 164.49 L4.01 164.49 L5.42 167.32 L65.37 167.32 ZM70.87 134.89 L0 134.89 L0 163.31 L70.87
							 163.31 L70.87 134.89 Z" class="st2"/>
			</g>
			<g id="shape58-10" v:mID="58" v:groupContext="shape" transform="translate(48.3243,-28.85)">
				<title>工作表.58</title>
				<rect x="0" y="149.817" width="18.4472" height="17.5068" class="st3"/>
			</g>
			<g id="shape59-12" v:mID="59" v:groupContext="shape" transform="translate(7.96323,-32.8702)">
				<title>工作表.59</title>
				<v:userDefs>
					<v:ud v:nameU="SurroundingRegionColor" v:prompt="" v:val="VT0(1):26"/>
					<v:ud v:nameU="SurroundingRegionColor" v:prompt="" v:val="VT5(#ffffff)"/>
				</v:userDefs>
				<path d="M4.99 157.91 L0 157.91 L0 160.3 L1.3 160.3 L1.3 161.55 L3.69 161.55 L3.69 160.3 L4.99 160.3 L4.99 157.91
							 ZM12.99 157.91 L8.01 157.91 L8.01 160.3 L9.3 160.3 L9.3 161.55 L11.7 161.55 L11.7 160.3 L12.99 160.3
							 L12.99 157.91 ZM21 157.91 L16.02 157.91 L16.02 160.3 L17.31 160.3 L17.31 161.55 L19.71 161.55 L19.71
							 160.3 L21 160.3 L21 157.91 ZM29.01 157.91 L24.03 157.91 L24.03 160.3 L25.32 160.3 L25.32 161.55 L27.72
							 161.55 L27.72 160.3 L29.01 160.3 L29.01 157.91 ZM29.01 163.69 L24.03 163.69 L24.03 166.08 L25.32 166.08
							 L25.32 167.32 L27.72 167.32 L27.72 166.08 L29.01 166.08 L29.01 163.69 ZM21 163.69 L16.02 163.69 L16.02
							 166.08 L17.31 166.08 L17.31 167.32 L19.71 167.32 L19.71 166.08 L21 166.08 L21 163.69 ZM12.99 163.69
							 L8.01 163.69 L8.01 166.08 L9.3 166.08 L9.3 167.32 L11.7 167.32 L11.7 166.08 L12.99 166.08 L12.99 163.69
							 ZM4.99 163.69 L0 163.69 L0 166.08 L1.3 166.08 L1.3 167.32 L3.69 167.32 L3.69 166.08 L4.99 166.08 L4.99
							 163.69 Z" class="st4"/>
			</g>
			<g id="shape60-15" v:mID="60" v:groupContext="shape" transform="translate(49.7558,-29.8782)">
				<title>工作表.60</title>
				<v:userDefs>
					<v:ud v:nameU="SurroundingRegionColor" v:prompt="" v:val="VT0(1):26"/>
					<v:ud v:nameU="SurroundingRegionColor" v:prompt="" v:val="VT5(#ffffff)"/>
				</v:userDefs>
				<path d="M7.43 165.48 L6.18 164.22 L6.18 165.69 L7.96 167.32 L9.73 165.7 L9.73 164.21 L8.49 165.47 L8.49 161.15 L7.43
							 161.15 L7.43 165.48 ZM11.59 159.07 L12.85 157.82 L11.39 157.82 L9.75 159.6 L11.38 161.37 L12.86 161.37
							 L11.6 160.13 L15.92 160.13 L15.92 159.07 L11.59 159.07 ZM8.48 153.72 L9.73 154.98 L9.73 153.51 L7.96
							 151.87 L6.18 153.51 L6.18 154.98 L7.42 153.73 L7.42 158.05 L8.48 158.05 L8.48 153.72 ZM4.33 160.12 L3.07
							 161.37 L4.53 161.37 L6.17 159.6 L4.54 157.82 L3.06 157.82 L4.32 159.06 L0 159.06 L0 160.12 L4.33 160.12
							 Z" class="st4"/>
			</g>
			<g id="shape56-18" v:mID="56" v:groupContext="groupContent">
				<v:textBlock v:margins="rect(4,4,4,4)" v:tabSpace="42.5197"/>
				<v:textRect cx="35.4331" cy="156.877" width="40.27" height="21.3161"/>
				<text x="20.43" y="160.21" class="st5" v:langID="2052"><v:paragraph v:horizAlign="1"/><v:tabList/>路由器</text>			</g>
		</g>
		<g id="group61-20" transform="translate(75.1929,-57.8882)" v:mID="61" v:groupContext="group">
			<v:custProps>
				<v:cp v:nameU="AssetNumber" v:lbl="资产号" v:prompt="" v:type="0" v:format="" v:sortKey="Asset" v:invis="false"
						v:ask="false" v:langID="2052" v:cal="0"/>
				<v:cp v:nameU="SerialNumber" v:lbl="序列号" v:prompt="" v:type="0" v:format="" v:sortKey="Asset" v:invis="false"
						v:ask="false" v:langID="2052" v:cal="0"/>
				<v:cp v:nameU="Location" v:lbl="位置" v:prompt="" v:type="0" v:format="" v:sortKey="Asset" v:invis="false"
						v:ask="false" v:langID="2052" v:cal="0"/>
				<v:cp v:nameU="Building" v:lbl="建筑物" v:prompt="" v:type="0" v:format="" v:sortKey="Asset" v:invis="false"
						v:ask="false" v:langID="2052" v:cal="0"/>
				<v:cp v:nameU="Room" v:lbl="房间" v:prompt="" v:type="0" v:format="" v:sortKey="Asset" v:invis="false" v:ask="false"
						v:langID="2052" v:cal="0"/>
				<v:cp v:nameU="Manufacturer" v:lbl="制造商" v:prompt="" v:type="0" v:format="" v:sortKey="Equipment" v:invis="false"
						v:ask="false" v:langID="2052" v:cal="0"/>
				<v:cp v:nameU="ProductNumber" v:lbl="产品编号" v:prompt="" v:type="0" v:format="" v:sortKey="Equipment" v:invis="false"
						v:ask="false" v:langID="2052" v:cal="0"/>
				<v:cp v:nameU="PartNumber" v:lbl="部件号" v:prompt="" v:type="0" v:format="" v:sortKey="Equipment" v:invis="false"
						v:ask="false" v:langID="2052" v:cal="0"/>
				<v:cp v:nameU="ProductDescription" v:lbl="产品说明" v:prompt="" v:type="0" v:format="" v:sortKey="Equipment"
						v:invis="false" v:ask="false" v:langID="2052" v:cal="0"/>
				<v:cp v:nameU="NetworkName" v:lbl="网络名称" v:prompt="" v:type="0" v:format="" v:sortKey="Network" v:invis="false"
						v:ask="false" v:langID="2052" v:cal="0"/>
				<v:cp v:nameU="IPAddress" v:lbl="IP 地址" v:prompt="" v:type="0" v:format="" v:sortKey="Network" v:invis="false"
						v:ask="false" v:langID="2052" v:cal="0"/>
				<v:cp v:nameU="SubnetMask" v:lbl="子网掩码" v:prompt="" v:type="0" v:format="" v:sortKey="Network" v:invis="false"
						v:ask="false" v:langID="2052" v:cal="0"/>
				<v:cp v:nameU="AdminInterface" v:lbl="管理接口" v:prompt="" v:type="0" v:format="" v:sortKey="Network" v:invis="false"
						v:ask="false" v:langID="2052" v:cal="0"/>
				<v:cp v:nameU="NumberofPorts" v:lbl="端口数目" v:prompt="" v:type="0" v:format="" v:sortKey="Network" v:invis="false"
						v:ask="false" v:langID="2052" v:cal="0"/>
				<v:cp v:nameU="CommunityString" v:lbl="团体字符串" v:prompt="" v:type="0" v:format="" v:sortKey="Network"
						v:invis="false" v:ask="false" v:langID="2052" v:cal="0"/>
				<v:cp v:nameU="NetworkDescription" v:lbl="网络说明" v:prompt="" v:type="0" v:format="" v:sortKey="Network"
						v:invis="false" v:ask="false" v:langID="2052" v:cal="0"/>
				<v:cp v:nameU="MACAddress" v:lbl="MAC 地址" v:prompt="" v:type="0" v:format="" v:sortKey="Network" v:invis="false"
						v:ask="false" v:langID="2052" v:cal="0"/>
				<v:cp v:nameU="CPU" v:lbl="CPU" v:prompt="" v:type="0" v:format="" v:sortKey="Workstation" v:invis="false"
						v:ask="false" v:langID="2052" v:cal="0"/>
				<v:cp v:nameU="Memory" v:lbl="内存" v:prompt="" v:type="0" v:format="" v:sortKey="Workstation" v:invis="false"
						v:ask="false" v:langID="2052" v:cal="0"/>
				<v:cp v:nameU="OperatingSystem" v:lbl="操作系统" v:prompt="" v:type="0" v:format="" v:sortKey="Workstation"
						v:invis="false" v:ask="false" v:langID="2052" v:cal="0"/>
				<v:cp v:nameU="HardDriveSize" v:lbl="硬盘容量" v:prompt="" v:type="0" v:format="" v:sortKey="Workstation"
						v:invis="false" v:ask="false" v:langID="2052" v:cal="0"/>
				<v:cp v:nameU="Department" v:lbl="部门" v:prompt="" v:type="0" v:format="" v:sortKey="" v:invis="false" v:ask="false"
						v:langID="2052" v:cal="0"/>
				<v:cp v:nameU="ShapeClass" v:lbl="ShapeClass" v:prompt="" v:type="0" v:format="" v:sortKey="" v:invis="true"
						v:ask="false" v:langID="2052" v:cal="0" v:val="VT4(设备)"/>
				<v:cp v:nameU="ShapeType" v:lbl="ShapeType" v:prompt="" v:type="0" v:format="" v:sortKey="" v:invis="true"
						v:ask="false" v:langID="2052" v:cal="0" v:val="VT4(计算机)"/>
				<v:cp v:nameU="SubShapeType" v:lbl="SubShapeType" v:prompt="" v:type="0" v:format="" v:sortKey="" v:invis="true"
						v:ask="false" v:langID="2052" v:cal="0" v:val="VT4(桌面)"/>
				<v:cp v:nameU="BelongsTo" v:lbl="属于" v:prompt="" v:type="0" v:format="" v:sortKey="" v:invis="true" v:ask="false"
						v:langID="2052" v:cal="0"/>
			</v:custProps>
			<v:userDefs>
				<v:ud v:nameU="visVersion" v:prompt="" v:val="VT0(15):26"/>
				<v:ud v:nameU="ShapeClass" v:prompt="" v:val="VT0(5):26"/>
				<v:ud v:nameU="SolSH" v:prompt="" v:val="VT15({BF0433D9-CD73-4EB5-8390-8653BE590246}):41"/>
				<v:ud v:nameU="visLegendShape" v:prompt="" v:val="VT0(2):26"/>
			</v:userDefs>
			<title>PC.115</title>
			<desc>工作站</desc>
			<g id="shape62-21" v:mID="62" v:groupContext="shape" transform="translate(0,-4.80179)">
				<title>工作表.62</title>
				<path d="M48.77 149.64 L48.77 155.72 L52.45 155.72 L55.92 160.07 L72 160.07 L72 104.93 L48.77 104.93 L48.77 112.84
							 L58.74 112.84 L58.74 149.64 L48.77 149.64 ZM58.74 112.84 L3.59 112.84 L3.59 149.64 L58.74 149.64 L58.74
							 112.84 ZM61.71 167.32 L52.45 155.72 L9.26 155.72 L0 167.32 L61.71 167.32 ZM35.7 149.64 L26 149.64 L26
							 155.72 L35.7 155.72 L35.7 149.64 Z" class="st2"/>
			</g>
			<g id="shape63-23" v:mID="63" v:groupContext="shape" transform="translate(7.16567,-25.7993)">
				<title>工作表.63</title>
				<v:userDefs>
					<v:ud v:nameU="SurroundingRegionColor" v:prompt="" v:val="VT0(1):26"/>
					<v:ud v:nameU="SurroundingRegionColor" v:prompt="" v:val="VT5(#ffffff)"/>
				</v:userDefs>
				<path d="M48.07 137.49 L0 137.49 L0 167.32 L48.07 167.32 L48.07 137.49 Z" class="st2"/>
			</g>
			<g id="shape64-25" v:mID="64" v:groupContext="shape" transform="translate(8.39752,-7.19698)">
				<title>工作表.64</title>
				<v:userDefs>
					<v:ud v:nameU="SurroundingRegionColor" v:prompt="" v:val="VT0(1):26"/>
					<v:ud v:nameU="SurroundingRegionColor" v:prompt="" v:val="VT5(#ffffff)"/>
				</v:userDefs>
				<path d="M54.3 113.5 L59.27 113.5 L59.27 111.56 L54.3 111.56 L54.3 113.5 ZM54.3 116.95 L59.27 116.95 L59.27 115.02
							 L54.3 115.02 L54.3 116.95 ZM42.14 162.82 L39.39 162.82 L40.93 164.53 L43.88 164.53 L42.14 162.82 ZM39.03
							 159.8 L36.67 159.8 L38.32 161.63 L40.91 161.63 L39.03 159.8 ZM37.92 162.82 L35.18 162.82 L36.38 164.53
							 L39.34 164.53 L37.92 162.82 ZM35.4 159.8 L33.04 159.8 L34.33 161.63 L36.93 161.63 L35.4 159.8 ZM33.7
							 162.82 L30.96 162.82 L31.83 164.53 L34.79 164.53 L33.7 162.82 ZM31.77 159.8 L29.41 159.8 L30.36 161.67
							 L32.95 161.67 L31.77 159.8 ZM29.48 162.82 L26.74 162.82 L27.28 164.53 L30.24 164.53 L29.48 162.82 ZM28.19
							 159.92 L25.81 159.92 L26.37 161.67 L28.97 161.67 L28.19 159.92 ZM25.26 162.82 L22.52 162.82 L22.74 164.53
							 L25.7 164.53 L25.26 162.82 ZM24.57 160.07 L22.17 160.07 L22.39 161.78 L25 161.78 L24.57 160.07 ZM20.88
							 160.07 L18.49 160.07 L18.37 161.78 L20.98 161.78 L20.88 160.07 ZM21.05 162.82 L18.3 162.82 L18.19 164.53
							 L21.15 164.53 L21.05 162.82 ZM17.2 160.07 L14.8 160.07 L14.36 161.78 L16.97 161.78 L17.2 160.07 ZM16.83
							 162.82 L14.08 162.82 L13.64 164.53 L16.6 164.53 L16.83 162.82 ZM31.87 165.62 L12.52 165.62 L12.02 167.32
							 L32.71 167.32 L31.87 165.62 ZM13.51 160.07 L11.11 160.07 L10.34 161.78 L12.95 161.78 L13.51 160.07 ZM12.61
							 162.82 L9.87 162.82 L9.09 164.53 L12.05 164.53 L12.61 162.82 ZM9.82 160.07 L7.43 160.07 L6.32 161.78
							 L8.94 161.78 L9.82 160.07 ZM8.39 162.82 L5.65 162.82 L4.55 164.53 L7.5 164.53 L8.39 162.82 ZM6.14 160.07
							 L3.74 160.07 L2.31 161.78 L4.92 161.78 L6.14 160.07 ZM4.17 162.82 L1.43 162.82 L0 164.53 L2.96 164.53
							 L4.17 162.82 Z" class="st4"/>
			</g>
			<g id="shape61-28" v:mID="61" v:groupContext="groupContent">
				<v:textBlock v:margins="rect(4,4,4,4)" v:tabSpace="42.5197"/>
				<v:textRect cx="36" cy="177.982" width="40.27" height="21.3161"/>
				<text x="21" y="181.31" class="st5" v:langID="2052"><v:paragraph v:horizAlign="1"/><v:tabList/>工作站</text>			</g>
		</g>
		<g id="group68-30" transform="translate(519.341,-76.2008)" v:mID="68" v:groupContext="group">
			<v:custProps>
				<v:cp v:nameU="ShapeClass" v:lbl="ShapeClass" v:prompt="" v:type="0" v:format="" v:sortKey="" v:invis="true"
						v:ask="false" v:langID="2052" v:cal="0" v:val="VT4(位置)"/>
				<v:cp v:nameU="ShapeType" v:lbl="ShapeType" v:prompt="" v:type="0" v:format="" v:sortKey="" v:invis="true"
						v:ask="false" v:langID="2052" v:cal="0" v:val="VT4(云)"/>
			</v:custProps>
			<v:userDefs>
				<v:ud v:nameU="visVersion" v:prompt="" v:val="VT0(15):26"/>
				<v:ud v:nameU="ShapeClass" v:prompt="" v:val="VT0(5):26"/>
				<v:ud v:nameU="SolSH" v:prompt="" v:val="VT15({BF0433D9-CD73-4EB5-8390-8653BE590246}):41"/>
				<v:ud v:nameU="visLegendShape" v:prompt="" v:val="VT0(2):26"/>
			</v:userDefs>
			<title>云形</title>
			<desc>Internet</desc>
			<g id="shape69-31" v:mID="69" v:groupContext="shape" transform="translate(0,-15.1187)">
				<title>工作表.69</title>
				<path d="M61.14 137.76 C60.76 134.41 57.72 131.8 53.98 131.8 C52.91 131.8 51.91 132.02 51.01 132.39 C49.25 129.1
							 45.6 126.7 38.77 126.89 C29.89 127.14 19.38 131.14 17.26 138.23 C14.73 138.71 13.1 140.09 12.13 141.91
							 C11.74 141.87 11.34 141.85 10.93 141.85 C5.08 141.85 0.59 146.12 0.33 151.37 C0 158.17 5.08 160.89 10.93
							 160.89 C11.76 160.89 12.57 160.8 13.35 160.63 C14.57 161.42 16.15 161.91 17.89 161.91 C19.49 161.91
							 20.97 161.49 22.14 160.8 C24.39 164.63 29.02 167.32 34.36 167.01 C39.97 166.68 43.34 165.49 45.33 163.64
							 C45.46 163.62 45.57 163.62 45.7 163.61 C51.98 162.8 54.74 161.18 55.63 158.5 C55.79 158.5 55.96 158.51
							 56.13 158.51 C64.27 158.51 70.87 156.13 70.87 147.8 C70.87 143.17 66.8 139.26 61.14 137.76 Z"
						class="st2"/>
			</g>
			<g id="shape68-33" v:mID="68" v:groupContext="groupContent">
				<v:textBlock v:margins="rect(4,4,4,4)" v:tabSpace="42.5197"/>
				<v:textRect cx="35.4331" cy="177.326" width="43.43" height="20.0036"/>
				<text x="18.85" y="180.33" class="st6" v:langID="2052"><v:paragraph v:horizAlign="1"/><v:tabList/>Internet</text>			</g>
		</g>
		<g id="shape85-35" v:mID="85" v:groupContext="shape" v:layerMember="1" transform="translate(433.897,-96.8937)">
			<title>动态连接线.85</title>
			<path d="M0 160.24 L86.16 160.24" class="st7"/>
		</g>
		<g id="shape86-38" v:mID="86" v:groupContext="shape" transform="translate(224.012,-54.9409)">
			<title>工作表.86</title>
			<rect x="0" y="89.3712" width="49.6063" height="77.9528" class="st1"/>
		</g>
		<g id="shape88-40" v:mID="88" v:groupContext="shape" transform="translate(224.012,-103.13)">
			<title>工作表.88</title>
			<path d="M0 167.32 L49.61 167.32" class="st7"/>
		</g>
		<g id="shape89-43" v:mID="89" v:groupContext="shape" transform="translate(228.177,-91.7913)">
			<title>工作表.89</title>
			<desc>NETNS</desc>
			<v:textBlock v:margins="rect(4,4,4,4)" v:tabSpace="42.5197"/>
			<v:textRect cx="20.6378" cy="161.625" width="41.28" height="11.3987"/>
			<rect x="0" y="155.925" width="41.2756" height="11.3987" class="st8"/>
			<text x="9.73" y="164.02" class="st9" v:langID="2052"><v:paragraph v:horizAlign="1"/><v:tabList/>NETNS</text>		</g>
		<g id="shape91-46" v:mID="91" v:groupContext="shape" transform="translate(228.177,-78.878)">
			<title>工作表.91</title>
			<desc>MITM</desc>
			<v:textBlock v:margins="rect(4,4,4,4)" v:tabSpace="42.5197"/>
			<v:textRect cx="20.6378" cy="157.324" width="41.28" height="20"/>
			<rect x="0" y="147.324" width="41.2756" height="20" class="st8"/>
			<text x="10.84" y="159.72" class="st9" v:langID="2052"><v:paragraph v:horizAlign="1"/><v:tabList/>MITM</text>		</g>
		<g id="shape97-49" v:mID="97" v:groupContext="shape" transform="translate(228.177,-121.495)">
			<title>工作表.97</title>
			<desc>NETNS</desc>
			<v:textBlock v:margins="rect(4,4,4,4)" v:tabSpace="42.5197"/>
			<v:textRect cx="20.6378" cy="161.625" width="41.28" height="11.3987"/>
			<rect x="0" y="155.925" width="41.2756" height="11.3987" class="st8"/>
			<text x="9.73" y="164.02" class="st9" v:langID="2052"><v:paragraph v:horizAlign="1"/><v:tabList/>NETNS</text>		</g>
		<g id="shape98-52" v:mID="98" v:groupContext="shape" transform="translate(228.177,-108.799)">
			<title>工作表.98</title>
			<desc>DEFAULT</desc>
			<v:textBlock v:margins="rect(4,4,4,4)" v:tabSpace="42.5197"/>
			<v:textRect cx="20.6378" cy="157.324" width="41.28" height="20"/>
			<rect x="0" y="147.324" width="41.2756" height="20" class="st8"/>
			<text x="5.87" y="159.72" class="st9" v:langID="2052"><v:paragraph v:horizAlign="1"/><v:tabList/>DEFAULT</text>		</g>
		<g id="shape99-55" v:mID="99" v:groupContext="shape" transform="translate(234.496,-98.7205)">
			<title>工作表.99</title>
			<desc>wlan0</desc>
			<v:textBlock v:margins="rect(4,4,4,4)" v:tabSpace="42.5197"/>
			<v:textRect cx="14.3189" cy="157.324" width="28.64" height="20"/>
			<rect x="0" y="147.324" width="28.6378" height="20" class="st8"/>
			<text x="4.5" y="159.72" class="st9" v:langID="2052"><v:paragraph v:horizAlign="1"/><v:tabList/>wlan0</text>		</g>
		<g id="shape102-58" v:mID="102" v:groupContext="shape" transform="translate(238.612,-66.2008)">
			<title>工作表.102</title>
			<desc>br0</desc>
			<v:textBlock v:margins="rect(4,4,4,4)" v:tabSpace="42.5197"/>
			<v:textRect cx="10.2028" cy="157.324" width="20.41" height="20"/>
			<rect x="0" y="147.324" width="20.4055" height="20" class="st8"/>
			<text x="4.68" y="159.72" class="st9" v:langID="2052"><v:paragraph v:horizAlign="1"/><v:tabList/>br0</text>		</g>
		<g id="shape104-61" v:mID="104" v:groupContext="shape" transform="translate(216.925,-52.0276)">
			<title>工作表.104</title>
			<desc>eth0</desc>
			<v:textBlock v:margins="rect(4,4,4,4)" v:tabSpace="42.5197"/>
			<v:textRect cx="16.5217" cy="157.324" width="33.05" height="20"/>
			<rect x="0" y="147.324" width="33.0433" height="20" class="st8"/>
			<text x="9.06" y="159.72" class="st9" v:langID="2052"><v:paragraph v:horizAlign="1"/><v:tabList/>eth0</text>		</g>
		<g id="shape106-64" v:mID="106" v:groupContext="shape" transform="translate(247.661,-52.0276)">
			<title>工作表.106</title>
			<desc>eth1</desc>
			<v:textBlock v:margins="rect(4,4,4,4)" v:tabSpace="42.5197"/>
			<v:textRect cx="16.5217" cy="157.324" width="33.05" height="20"/>
			<rect x="0" y="147.324" width="33.0433" height="20" class="st8"/>
			<text x="9.06" y="159.72" class="st9" v:langID="2052"><v:paragraph v:horizAlign="1"/><v:tabList/>eth1</text>		</g>
		<g id="shape108-67" v:mID="108" v:groupContext="shape" transform="translate(115.617,-14.7203) rotate(-45)">
			<title>工作表.108</title>
			<path d="M0 167.32 L13.91 167.32" class="st7"/>
		</g>
		<g id="shape112-70" v:mID="112" v:groupContext="shape" transform="translate(135.68,214.301) rotate(-131.424)">
			<title>工作表.112</title>
			<path d="M0 167.32 L12.85 167.32" class="st7"/>
		</g>
		<g id="shape116-73" v:mID="116" v:groupContext="shape" v:layerMember="1" transform="translate(147.193,-96.0433)">
			<title>动态连接线</title>
			<path d="M0 160.24 L76.82 160.24" class="st7"/>
		</g>
		<g id="shape117-76" v:mID="117" v:groupContext="shape" v:layerMember="1" transform="translate(273.618,-96.0433)">
			<title>动态连接线.117</title>
			<path d="M0 160.24 L80.91 160.24" class="st7"/>
		</g>
		<g id="shape118-79" v:mID="118" v:groupContext="shape" transform="translate(173.449,-133.071)">
			<title>工作表.118</title>
			<desc>Mgmt</desc>
			<v:textBlock v:margins="rect(4,4,4,4)" v:tabSpace="42.5197"/>
			<v:textRect cx="76" cy="157.324" width="152" height="20"/>
			<rect x="0" y="147.324" width="152" height="20" class="st8"/>
			<text x="61.24" y="160.92" class="st10" v:langID="2052"><v:paragraph v:horizAlign="1"/><v:tabList/>Mgmt</text>		</g>
		<g id="shape124-82" v:mID="124" v:groupContext="shape" transform="translate(414.93,30.1838) rotate(90)">
			<title>工作表.124</title>
			<path d="M0 167.32 L26.59 167.32" class="st7"/>
		</g>
	</g>
</svg>
